<svg xmlns="http://www.w3.org/2000/svg" width="11" height="17" viewBox="0 0 11 17"><g><g><path d="M11.008 5.565c0 2.952-5.006 10.94-5.219 11.28a.342.342 0 0 1-.578 0c-.214-.34-5.22-8.328-5.22-11.28 0-3.072 2.472-5.571 5.509-5.571 3.037 0 5.508 2.499 5.508 5.57zm-3.225 6.46c1.66-3.105 2.539-5.338 2.539-6.46 0-2.69-2.163-4.877-4.822-4.877C2.84.688.678 2.876.678 5.565c0 1.122.878 3.355 2.54 6.46A84.123 84.123 0 0 0 5.5 16.003a84.123 84.123 0 0 0 2.283-3.978zM8.105 5.2c0 1.415-1.168 2.565-2.605 2.565S2.894 6.615 2.894 5.2 4.063 2.635 5.5 2.635c1.437 0 2.605 1.15 2.605 2.565zm-.686 0c0-1.032-.86-1.871-1.92-1.871-1.058 0-1.919.84-1.919 1.87 0 1.032.861 1.872 1.92 1.872 1.058 0 1.92-.84 1.92-1.871z"/><path fill="#fff" d="M11.008 5.565c0 2.952-5.006 10.94-5.219 11.28a.342.342 0 0 1-.578 0c-.214-.34-5.22-8.328-5.22-11.28 0-3.072 2.472-5.571 5.509-5.571 3.037 0 5.508 2.499 5.508 5.57zm-3.225 6.46c1.66-3.105 2.539-5.338 2.539-6.46 0-2.69-2.163-4.877-4.822-4.877C2.84.688.678 2.876.678 5.565c0 1.122.878 3.355 2.54 6.46A84.123 84.123 0 0 0 5.5 16.003a84.123 84.123 0 0 0 2.283-3.978zM8.105 5.2c0 1.415-1.168 2.565-2.605 2.565S2.894 6.615 2.894 5.2 4.063 2.635 5.5 2.635c1.437 0 2.605 1.15 2.605 2.565zm-.686 0c0-1.032-.86-1.871-1.92-1.871-1.058 0-1.919.84-1.919 1.87 0 1.032.861 1.872 1.92 1.872 1.058 0 1.92-.84 1.92-1.871z"/></g></g></svg>